<svg xmlns="http://www.w3.org/2000/svg" width="1000" height="600" viewBox="0 0 1000 600">
<rect width="1000" height="600" fill="#eef3f5"/>
<rect width="1000" height="50" fill="#169bd5"/>
<text x="500" y="32" text-anchor="middle" font-family="Arial" font-size="21" font-weight="700" fill="white">Micro Livraria</text>
<rect y="50" width="1000" height="40" fill="white"/>
<text x="500" y="75" text-anchor="middle" font-family="Arial" font-size="10" fill="#444">Uma simples livraria utilizando microservices</text>

<!-- cards -->
<g font-family="Arial" fill="#333">
  <rect x="74" y="110" width="271" height="468" rx="2" fill="white"/>
  <rect x="359" y="110" width="271" height="468" rx="2" fill="white"/>
  <rect x="644" y="110" width="272" height="468" rx="2" fill="white"/>

  <!-- book 1 -->
  <rect x="150" y="136" width="115" height="150" rx="2" fill="#b53a3f"/>
  <rect x="158" y="144" width="99" height="134" fill="#5b4f4f"/>
  <text x="207" y="175" text-anchor="middle" font-size="10" fill="white">Refatoração</text>
  <text x="99" y="354" font-size="17">R$79.92</text>
  <text x="99" y="387" font-size="11">Disponível em estoque: 5</text>
  <text x="99" y="419" font-size="22" font-weight="700">Refactoring</text>
  <text x="99" y="441" font-size="13">Martin Fowler</text>

  <!-- book 2 -->
  <rect x="437" y="133" width="110" height="153" rx="2" fill="#f3d94d"/>
  <text x="492" y="177" text-anchor="middle" font-size="11" font-weight="700">ENGENHARIA</text>
  <text x="492" y="194" text-anchor="middle" font-size="11" font-weight="700">DE SOFTWARE</text>
  <text x="492" y="211" text-anchor="middle" font-size="11" font-weight="700">MODERNA</text>
  <text x="384" y="354" font-size="17">R$65.90</text>
  <text x="384" y="387" font-size="11">Disponível em estoque: 5</text>
  <text x="384" y="420" font-size="21" font-weight="700">Engenharia de Software</text>
  <text x="384" y="443" font-size="21" font-weight="700">Moderna</text>
  <text x="384" y="465" font-size="13">Marco Tulio Valente</text>

  <!-- book 3 -->
  <rect x="724" y="137" width="110" height="149" rx="2" fill="#dfeef5" stroke="#6d8da0"/>
  <rect x="820" y="137" width="14" height="149" fill="#1187c6"/>
  <text x="779" y="170" text-anchor="middle" font-size="12" fill="#35708d">Design Patterns</text>
  <text x="669" y="354" font-size="17">R$67.99</text>
  <text x="669" y="387" font-size="11">Disponível em estoque: 5</text>
  <text x="669" y="419" font-size="22" font-weight="700">Design Patterns</text>
  <text x="669" y="441" font-size="13">Erich Gamma, John Vlissides, Richard</text>
  <text x="669" y="459" font-size="13">Helm, Ralph Johnson</text>

  <!-- controls -->
  <g font-size="10">
    <rect x="99" y="496" width="138" height="24" fill="white" stroke="#d8d8d8"/><text x="108" y="512" fill="#b6b6b6">Digite o CEP</text>
    <rect x="237" y="496" width="83" height="24" fill="#169bd5"/><text x="278" y="512" text-anchor="middle" fill="white">Calcular Frete</text>
    <rect x="99" y="528" width="221" height="25" fill="#28c97c"/><text x="210" y="545" text-anchor="middle" fill="white">Comprar</text>

    <rect x="384" y="496" width="138" height="24" fill="white" stroke="#d8d8d8"/><text x="393" y="512" fill="#b6b6b6">Digite o CEP</text>
    <rect x="522" y="496" width="83" height="24" fill="#169bd5"/><text x="563" y="512" text-anchor="middle" fill="white">Calcular Frete</text>
    <rect x="384" y="528" width="221" height="25" fill="#28c97c"/><text x="495" y="545" text-anchor="middle" fill="white">Comprar</text>

    <rect x="669" y="496" width="138" height="24" fill="white" stroke="#d8d8d8"/><text x="678" y="512" fill="#b6b6b6">Digite o CEP</text>
    <rect x="807" y="496" width="84" height="24" fill="#169bd5"/><text x="849" y="512" text-anchor="middle" fill="white">Calcular Frete</text>
    <rect x="669" y="528" width="222" height="25" fill="#28c97c"/><text x="780" y="545" text-anchor="middle" fill="white">Comprar</text>
  </g>
</g>
</svg>